<svg xmlns="http://www.w3.org/2000/svg" xmlns:xlink="http://www.w3.org/1999/xlink" width="500" zoomAndPan="magnify" viewBox="0 0 375 374.999991" height="500" preserveAspectRatio="xMidYMid meet" version="1.0"><defs><clipPath id="cc6f90ec02"><path d="M 134 182 L 289.566406 182 L 289.566406 225.945312 L 134 225.945312 Z M 134 182 " clip-rule="nonzero"/></clipPath><clipPath id="ebfe3fd24f"><path d="M 65.316406 131 L 148 131 L 148 198 L 65.316406 198 Z M 65.316406 131 " clip-rule="nonzero"/></clipPath><clipPath id="7bf5bc84ed"><path d="M 132 100.695312 L 214 100.695312 L 214 150 L 132 150 Z M 132 100.695312 " clip-rule="nonzero"/></clipPath></defs><g clip-path="url(#cc6f90ec02)"><path fill="#f2ae1c" d="M 246.160156 203.839844 C 246.160156 191.828125 255.890625 182.101562 267.902344 182.101562 C 279.914062 182.101562 289.644531 191.828125 289.644531 203.839844 C 289.644531 215.855469 279.914062 225.582031 267.902344 225.582031 C 255.890625 225.582031 246.160156 215.855469 246.160156 203.839844 Z M 156.597656 225.582031 C 168.613281 225.582031 178.339844 215.855469 178.339844 203.839844 C 178.339844 191.828125 168.613281 182.101562 156.597656 182.101562 C 144.585938 182.101562 134.855469 191.828125 134.855469 203.839844 C 134.855469 215.855469 144.628906 225.582031 156.597656 225.582031 Z M 156.597656 225.582031 " fill-opacity="1" fill-rule="nonzero"/></g><path fill="#ffe42e" d="M 240.46875 208.144531 C 235.851562 195.996094 240.558594 181.964844 252.125 175.195312 C 263.6875 168.429688 278.257812 171.253906 286.550781 181.25 Z M 240.46875 208.144531 " fill-opacity="1" fill-rule="nonzero"/><path fill="#f2ae1c" d="M 196.628906 166.140625 C 186.722656 183.667969 199.675781 193.039062 199.675781 193.039062 L 227.109375 193.039062 C 230.5625 191.738281 238.183594 184.027344 243.113281 172.597656 C 248.042969 161.167969 230.921875 125.351562 230.921875 125.351562 C 238.183594 116.207031 257.054688 120.375 257.054688 120.375 L 257.054688 139.828125 L 246.160156 136.78125 L 261.804688 168.785156 L 232.847656 203.839844 L 131.449219 203.839844 L 152.429688 166.140625 Z M 196.628906 166.140625 " fill-opacity="1" fill-rule="nonzero"/><path fill="#b56008" d="M 257.054688 203.839844 C 257.054688 197.878906 261.894531 193.039062 267.859375 193.039062 C 273.820312 193.039062 278.660156 197.878906 278.660156 203.839844 C 278.660156 209.804688 273.820312 214.644531 267.859375 214.644531 C 261.894531 214.644531 257.054688 209.804688 257.054688 203.839844 Z M 156.597656 214.644531 C 162.558594 214.644531 167.402344 209.804688 167.402344 203.839844 C 167.402344 197.878906 162.558594 193.039062 156.597656 193.039062 C 150.636719 193.039062 145.792969 197.878906 145.792969 203.839844 C 145.792969 209.804688 150.636719 214.644531 156.597656 214.644531 Z M 156.597656 214.644531 " fill-opacity="1" fill-rule="nonzero"/><path fill="#ffe42e" d="M 203.84375 166.140625 L 142.523438 166.140625 L 142.523438 154.308594 L 203.890625 154.308594 L 203.890625 166.140625 Z M 160.050781 172.597656 C 143.507812 172.597656 126.117188 186.851562 126.117188 204.425781 L 185.960938 204.425781 C 185.960938 182.90625 181.96875 172.597656 160.050781 172.597656 Z M 160.050781 172.597656 " fill-opacity="1" fill-rule="nonzero"/><g clip-path="url(#ebfe3fd24f)"><path fill="#b56008" d="M 134.902344 169.996094 L 97.921875 169.996094 C 97.246094 169.996094 96.710938 169.460938 96.710938 168.785156 C 96.710938 168.113281 97.246094 167.578125 97.921875 167.578125 L 134.902344 167.578125 C 135.574219 167.578125 136.113281 168.113281 136.113281 168.785156 C 136.113281 169.460938 135.574219 169.996094 134.902344 169.996094 Z M 123.917969 178.695312 C 123.917969 178.019531 123.382812 177.484375 122.710938 177.484375 L 66.675781 177.484375 C 66.003906 177.484375 65.464844 178.019531 65.464844 178.695312 C 65.464844 179.367188 66.003906 179.902344 66.675781 179.902344 L 122.710938 179.902344 C 123.382812 179.902344 123.917969 179.367188 123.917969 178.695312 Z M 136.113281 195.863281 C 136.113281 195.191406 135.574219 194.652344 134.902344 194.652344 L 88.777344 194.652344 C 88.101562 194.652344 87.566406 195.191406 87.566406 195.863281 C 87.566406 196.535156 88.101562 197.074219 88.777344 197.074219 L 134.902344 197.074219 C 135.574219 197.074219 136.113281 196.535156 136.113281 195.863281 Z M 147.003906 188.511719 C 147.003906 187.839844 146.46875 187.300781 145.792969 187.300781 L 104.417969 187.300781 C 103.746094 187.300781 103.210938 187.839844 103.210938 188.511719 C 103.210938 189.183594 103.746094 189.722656 104.417969 189.722656 L 145.792969 189.722656 C 146.46875 189.722656 147.003906 189.183594 147.003906 188.511719 Z M 132.300781 143.28125 C 132.300781 142.609375 131.765625 142.070312 131.089844 142.070312 L 77.75 142.070312 C 77.074219 142.070312 76.539062 142.609375 76.539062 143.28125 C 76.539062 143.953125 77.074219 144.492188 77.75 144.492188 L 131.089844 144.492188 C 131.765625 144.492188 132.300781 143.953125 132.300781 143.28125 Z M 127.328125 132.613281 C 127.328125 131.941406 126.789062 131.402344 126.117188 131.402344 L 107.066406 131.402344 C 106.390625 131.402344 105.855469 131.941406 105.855469 132.613281 C 105.855469 133.285156 106.390625 133.820312 107.066406 133.820312 L 126.117188 133.820312 C 126.789062 133.824219 127.328125 133.285156 127.328125 132.613281 Z M 127.328125 132.613281 " fill-opacity="1" fill-rule="nonzero"/></g><g clip-path="url(#7bf5bc84ed)"><path fill="#b56008" d="M 213.394531 149.691406 L 132.972656 149.691406 C 132.972656 128.890625 148.753906 111.769531 169.015625 109.707031 C 168.207031 108.765625 167.714844 107.507812 167.714844 106.164062 C 167.714844 103.160156 170.179688 100.695312 173.183594 100.695312 C 176.1875 100.695312 178.652344 103.160156 178.652344 106.164062 C 178.652344 107.507812 178.160156 108.71875 177.351562 109.707031 C 197.613281 111.769531 213.394531 128.890625 213.394531 149.691406 Z M 213.394531 149.691406 " fill-opacity="1" fill-rule="nonzero"/></g><path stroke-linecap="butt" transform="matrix(1.115641, 0, 0, 1.115641, 81.803774, 231.617738)" fill="none" stroke-linejoin="miter" d="M 22.700065 24.001255 L 21.709183 11.613482 L 21.586636 11.613482 L 17.307988 23.875206 L 14.468393 23.875206 L 10.189745 11.613482 L 10.060195 11.613482 L 9.076316 24.001255 L 4.314481 24.001255 L 6.187703 3.105204 L 11.254155 3.105204 L 15.88644 15.156847 L 20.522226 3.105204 L 25.588678 3.105204 L 27.4619 24.001255 Z M 41.341247 3.105204 L 41.341247 7.285814 L 34.149476 7.285814 L 34.149476 11.434913 L 41.040131 11.434913 L 41.040131 15.615524 L 34.149476 15.615524 L 34.149476 19.820644 L 41.341247 19.820644 L 41.341247 24.001255 L 29.387642 24.001255 L 29.387642 3.105204 Z M 54.691891 3.105204 L 63.126641 24.001255 L 58.01117 24.001255 L 56.463574 19.820644 L 48.51201 19.820644 L 46.967915 24.001255 L 41.845442 24.001255 L 50.280191 3.105204 Z M 54.845951 15.640033 L 52.514052 9.561691 L 52.465033 9.561691 L 50.133135 15.640033 Z M 68.697287 3.105204 L 68.697287 19.820644 L 75.889058 19.820644 L 75.889058 24.001255 L 63.935453 24.001255 L 63.935453 3.105204 Z M 102.432785 24.001255 L 101.441904 11.613482 L 101.319356 11.613482 L 97.040708 23.875206 L 94.201114 23.875206 L 89.922465 11.613482 L 89.792915 11.613482 L 88.809036 24.001255 L 84.047202 24.001255 L 85.920423 3.105204 L 90.986875 3.105204 L 95.61916 15.156847 L 100.254946 3.105204 L 105.321398 3.105204 L 107.19462 24.001255 Z M 108.182001 13.535722 C 108.182001 10.514058 109.211397 7.958073 111.273692 5.860765 C 113.335986 3.766958 115.814942 2.720055 118.71756 2.720055 C 121.641186 2.720055 124.123643 3.763457 126.164929 5.850261 C 128.209717 7.937065 129.232111 10.496551 129.232111 13.535722 C 129.232111 16.595901 128.227224 19.169393 126.213948 21.252696 C 124.207675 23.335998 121.707712 24.375899 118.71756 24.375899 C 115.664384 24.375899 113.143412 23.343001 111.154646 21.280706 C 109.172882 19.207908 108.182001 16.627414 108.182001 13.535722 Z M 113.325482 13.535722 C 113.325482 14.638647 113.493547 15.640033 113.833178 16.543381 C 114.172809 17.443228 114.761035 18.210023 115.601359 18.836765 C 116.448686 19.460005 117.485085 19.771625 118.71756 19.771625 C 120.492744 19.771625 121.830259 19.16239 122.733607 17.947422 C 123.633454 16.728953 124.085128 15.258386 124.085128 13.535722 C 124.085128 11.834067 123.626451 10.370503 122.709098 9.145031 C 121.788243 7.92306 120.45773 7.310324 118.71756 7.310324 C 116.994896 7.310324 115.664384 7.92306 114.729523 9.145031 C 113.794663 10.370503 113.325482 11.834067 113.325482 13.535722 Z M 137.869939 24.001255 L 129.102561 3.105204 L 134.473631 3.105204 L 139.743161 16.833993 L 145.012691 3.105204 L 150.380259 3.105204 L 141.616383 24.001255 Z M 163.146178 3.105204 L 163.146178 7.285814 L 155.954407 7.285814 L 155.954407 11.434913 L 162.841561 11.434913 L 162.841561 15.615524 L 155.954407 15.615524 L 155.954407 19.820644 L 163.146178 19.820644 L 163.146178 24.001255 L 151.192572 24.001255 L 151.192572 3.105204 Z M 165.880732 3.105204 L 173.35261 3.105204 C 175.362385 3.105204 177.001016 3.64091 178.268504 4.712323 C 179.532491 5.783736 180.166236 7.313825 180.166236 9.306093 C 180.166236 10.843185 179.781087 12.131681 179.01079 13.171582 C 178.243995 14.211483 177.204094 14.939763 175.887587 15.359925 L 183.079358 24.001255 L 177.025526 24.001255 L 170.642566 15.745074 L 170.642566 24.001255 L 165.880732 24.001255 Z M 170.642566 12.373274 L 171.199281 12.373274 C 171.636949 12.373274 172.008092 12.366272 172.31271 12.348765 C 172.617327 12.331258 172.963961 12.275237 173.35261 12.177199 C 173.737759 12.072158 174.049379 11.928603 174.283969 11.743032 C 174.525562 11.553959 174.728641 11.280854 174.896705 10.927217 C 175.068271 10.573581 175.152304 10.142915 175.152304 9.642222 C 175.152304 9.134527 175.068271 8.703861 174.896705 8.346723 C 174.728641 7.993087 174.525562 7.723483 174.283969 7.537911 C 174.049379 7.35234 173.737759 7.208785 173.35261 7.103744 C 172.963961 7.002205 172.617327 6.942682 172.31271 6.925175 C 172.008092 6.907669 171.636949 6.900666 171.199281 6.900666 L 170.642566 6.900666 Z M 170.642566 12.373274 " stroke="#eed000" stroke-width="1.409165" stroke-opacity="1" stroke-miterlimit="4"/></svg>